<svg width="26" height="26" viewBox="0 0 26 26" fill="none" xmlns="http://www.w3.org/2000/svg">
<path d="M11.753 19.2321C9.6873 19.2321 7.92435 18.502 6.46414 17.0418C5.00392 15.5816 4.27381 13.8186 4.27381 11.753V5.34226C4.27381 4.75461 4.48323 4.25137 4.90206 3.83254C5.32089 3.4137 5.82378 3.20464 6.41071 3.20535H19.7664C20.7992 3.20535 21.6807 3.57041 22.4108 4.30052C23.1409 5.03063 23.506 5.9121 23.506 6.94494C23.506 7.97778 23.1409 8.85925 22.4108 9.58936C21.6807 10.3195 20.7992 10.6845 19.7664 10.6845H19.2321V11.753C19.2321 13.8186 18.502 15.5816 17.0418 17.0418C15.5816 18.502 13.8186 19.2321 11.753 19.2321ZM6.41071 8.54762H17.0952V5.34226H6.41071V8.54762ZM19.2321 8.54762H19.7664C20.2116 8.54762 20.5901 8.39162 20.9021 8.07963C21.2141 7.76765 21.3698 7.38941 21.369 6.94494C21.369 6.49975 21.2131 6.12116 20.9011 5.80917C20.5891 5.49718 20.2108 5.34155 19.7664 5.34226H19.2321V8.54762ZM4.27381 22.4375V20.3006H21.369V22.4375H4.27381Z" fill="#66BEEF"/>
</svg>
