<svg width="26" height="26" viewBox="0 0 26 26" fill="none" xmlns="http://www.w3.org/2000/svg">
<path d="M12.0315 19.2321C9.96581 19.2321 8.20286 18.502 6.74264 17.0418C5.28242 15.5816 4.55231 13.8186 4.55231 11.753V5.34226C4.55231 4.75461 4.76173 4.25137 5.18056 3.83254C5.5994 3.4137 6.10228 3.20464 6.68922 3.20535H20.0449C21.0777 3.20535 21.9592 3.57041 22.6893 4.30052C23.4194 5.03063 23.7845 5.9121 23.7845 6.94494C23.7845 7.97778 23.4194 8.85925 22.6893 9.58936C21.9592 10.3195 21.0777 10.6845 20.0449 10.6845H19.5106V11.753C19.5106 13.8186 18.7805 15.5816 17.3203 17.0418C15.8601 18.502 14.0972 19.2321 12.0315 19.2321ZM6.68922 8.54762H17.3737V5.34226H6.68922V8.54762ZM19.5106 8.54762H20.0449C20.4901 8.54762 20.8686 8.39162 21.1806 8.07963C21.4926 7.76765 21.6483 7.38941 21.6476 6.94494C21.6476 6.49975 21.4916 6.12116 21.1796 5.80917C20.8676 5.49718 20.4893 5.34155 20.0449 5.34226H19.5106V8.54762ZM4.55231 22.4375V20.3006H21.6476V22.4375H4.55231Z" fill="#EFB466"/>
</svg>
