<svg width="50" height="50" viewBox="0 0 50 50" fill="none" xmlns="http://www.w3.org/2000/svg">
<path d="M6.25 20.8333H35.4167V31.25C35.4167 34.5652 34.0997 37.7446 31.7555 40.0888C29.4113 42.433 26.2319 43.75 22.9167 43.75H18.75C15.4348 43.75 12.2554 42.433 9.91117 40.0888C7.56696 37.7446 6.25 34.5652 6.25 31.25V20.8333Z" fill="#EFB466" stroke="black" stroke-width="2" stroke-linecap="round" stroke-linejoin="round"/>
<path d="M34.8875 34.8458C35.8179 35.273 36.839 35.465 37.861 35.405C38.883 35.3451 39.8747 35.035 40.7487 34.502C41.6228 33.9691 42.3526 33.2295 42.874 32.3485C43.3953 31.4674 43.6922 30.4717 43.7386 29.449C43.785 28.4263 43.5795 27.4078 43.14 26.4832C42.7006 25.5585 42.0408 24.7559 41.2185 24.146C40.3963 23.5361 39.4368 23.1375 38.4244 22.9852C37.412 22.833 36.3778 22.9318 35.4125 23.2729" stroke="black" stroke-width="2" stroke-linecap="round" stroke-linejoin="round"/>
<path d="M6.25 29.1667C7.97917 30.5042 10.5771 31.2854 13.5417 31.25C16.5063 31.2854 19.1042 30.5042 20.8333 29.1667C22.5625 27.8292 25.1604 27.0479 28.125 27.0833C31.0896 27.0479 33.6875 27.8292 35.4167 29.1667M16.6667 6.25C16.0073 6.72327 15.4731 7.34994 15.1101 8.07588C14.7471 8.80183 14.5663 9.60522 14.5833 10.4167C14.5663 11.2281 14.7471 12.0315 15.1101 12.7574C15.4731 13.4834 16.0073 14.1101 16.6667 14.5833M25 6.25C24.3406 6.72327 23.8064 7.34994 23.4434 8.07588C23.0805 8.80183 22.8997 9.60522 22.9167 10.4167C22.8997 11.2281 23.0805 12.0315 23.4434 12.7574C23.8064 13.4834 24.3406 14.1101 25 14.5833" stroke="black" stroke-width="2" stroke-linecap="round" stroke-linejoin="round"/>
</svg>
