<svg width="203" height="54" viewBox="0 0 203 54" fill="none" xmlns="http://www.w3.org/2000/svg">
<path d="M67.6016 42.504C66.4656 42.504 65.4016 42.208 64.4096 41.616C63.4336 41.008 62.5696 40.128 61.8176 38.976C61.0656 37.824 60.4736 36.44 60.0416 34.824C59.6256 33.192 59.4176 31.352 59.4176 29.304C59.4176 27 59.6896 25.04 60.2336 23.424C60.7936 21.808 61.5056 20.504 62.3696 19.512C63.2336 18.52 64.1536 17.792 65.1296 17.328C66.1056 16.864 67.0176 16.632 67.8656 16.632C69.0176 16.632 70.0176 16.936 70.8656 17.544C71.7296 18.136 72.3936 18.928 72.8576 19.92C73.3376 20.912 73.5776 22 73.5776 23.184C73.5776 24.272 73.3696 25.088 72.9536 25.632C72.5376 26.176 71.9936 26.448 71.3216 26.448C70.6336 26.448 70.0736 26.216 69.6416 25.752C69.2256 25.272 69.0176 24.624 69.0176 23.808C69.0176 23.248 69.1216 22.768 69.3296 22.368C69.5536 21.968 69.7776 21.592 70.0016 21.24C70.2256 20.888 70.3376 20.504 70.3376 20.088C70.3376 19.352 70.1296 18.808 69.7136 18.456C69.2976 18.088 68.8016 17.904 68.2256 17.904C67.6336 17.904 67.1456 18.272 66.7616 19.008C66.3936 19.744 66.1056 20.688 65.8976 21.84C65.7056 22.992 65.5696 24.216 65.4896 25.512C65.4256 26.808 65.3936 28.016 65.3936 29.136C65.3936 30.432 65.4336 31.776 65.5136 33.168C65.6096 34.56 65.7696 35.864 65.9936 37.08C66.2176 38.28 66.5376 39.256 66.9536 40.008C67.3856 40.744 67.9456 41.112 68.6336 41.112C69.5776 41.112 70.3296 40.808 70.8896 40.2C71.4496 39.576 71.8256 38.928 72.0176 38.256L73.0016 39.024C72.6656 39.936 72.0496 40.744 71.1536 41.448C70.2736 42.152 69.0896 42.504 67.6016 42.504ZM82.9793 42.528C81.8593 42.528 80.8673 42.328 80.0033 41.928C79.1393 41.512 78.4593 40.76 77.9633 39.672C77.4673 38.568 77.2193 36.992 77.2193 34.944V18.12H75.0833V16.896H82.9793V34.32C82.9793 35.968 83.0273 37.248 83.1233 38.16C83.2193 39.056 83.3793 39.688 83.6033 40.056C83.8433 40.408 84.1633 40.584 84.5633 40.584C84.9953 40.584 85.3873 40.352 85.7393 39.888C86.0913 39.408 86.3633 38.768 86.5553 37.968C86.7473 37.168 86.8433 36.288 86.8433 35.328V18.12H84.8993V16.896H92.6033V40.752H94.5473V42H87.2993L87.1073 39.432C87.0113 39.864 86.7953 40.32 86.4593 40.8C86.1393 41.28 85.6913 41.688 85.1153 42.024C84.5393 42.36 83.8273 42.528 82.9793 42.528ZM95.4945 54V52.752H97.8225V18.12H95.4945V16.872H103.583V19.488C103.663 19.216 103.839 18.856 104.111 18.408C104.399 17.944 104.799 17.536 105.311 17.184C105.839 16.816 106.503 16.632 107.303 16.632C108.391 16.632 109.391 17.072 110.303 17.952C111.231 18.832 111.975 20.224 112.535 22.128C113.111 24.032 113.399 26.512 113.399 29.568C113.399 32.848 113.087 35.432 112.463 37.32C111.855 39.192 111.047 40.52 110.039 41.304C109.047 42.088 107.975 42.48 106.823 42.48C106.135 42.48 105.567 42.328 105.119 42.024C104.687 41.736 104.351 41.4 104.111 41.016C103.887 40.616 103.743 40.296 103.679 40.056V52.752H106.055V54H95.4945ZM105.671 40.632C105.991 40.632 106.271 40.368 106.511 39.84C106.751 39.296 106.951 38.536 107.111 37.56C107.287 36.584 107.415 35.424 107.495 34.08C107.575 32.736 107.615 31.256 107.615 29.64C107.615 28.056 107.575 26.6 107.495 25.272C107.415 23.928 107.295 22.768 107.135 21.792C106.975 20.816 106.775 20.064 106.535 19.536C106.295 18.992 106.015 18.72 105.695 18.72C105.311 18.72 104.983 18.936 104.711 19.368C104.455 19.8 104.239 20.368 104.063 21.072C103.903 21.76 103.775 22.496 103.679 23.28V35.664C103.695 36.56 103.783 37.384 103.943 38.136C104.119 38.888 104.351 39.496 104.639 39.96C104.927 40.408 105.271 40.632 105.671 40.632ZM124.367 42.504C123.231 42.504 122.167 42.208 121.175 41.616C120.199 41.008 119.335 40.128 118.583 38.976C117.831 37.824 117.239 36.44 116.807 34.824C116.391 33.192 116.183 31.352 116.183 29.304C116.183 27 116.455 25.04 116.999 23.424C117.559 21.808 118.271 20.504 119.135 19.512C119.999 18.52 120.919 17.792 121.895 17.328C122.871 16.864 123.783 16.632 124.631 16.632C125.783 16.632 126.783 16.936 127.631 17.544C128.495 18.136 129.159 18.928 129.623 19.92C130.103 20.912 130.343 22 130.343 23.184C130.343 24.272 130.135 25.088 129.719 25.632C129.303 26.176 128.759 26.448 128.087 26.448C127.399 26.448 126.839 26.216 126.407 25.752C125.991 25.272 125.783 24.624 125.783 23.808C125.783 23.248 125.887 22.768 126.095 22.368C126.319 21.968 126.543 21.592 126.767 21.24C126.991 20.888 127.103 20.504 127.103 20.088C127.103 19.352 126.895 18.808 126.479 18.456C126.063 18.088 125.567 17.904 124.991 17.904C124.399 17.904 123.911 18.272 123.527 19.008C123.159 19.744 122.871 20.688 122.663 21.84C122.471 22.992 122.335 24.216 122.255 25.512C122.191 26.808 122.159 28.016 122.159 29.136C122.159 30.432 122.199 31.776 122.279 33.168C122.375 34.56 122.535 35.864 122.759 37.08C122.983 38.28 123.303 39.256 123.719 40.008C124.151 40.744 124.711 41.112 125.399 41.112C126.343 41.112 127.095 40.808 127.655 40.2C128.215 39.576 128.591 38.928 128.783 38.256L129.767 39.024C129.431 39.936 128.815 40.744 127.919 41.448C127.039 42.152 125.855 42.504 124.367 42.504ZM138.113 42.504C137.073 42.504 136.129 42.264 135.281 41.784C134.433 41.304 133.761 40.6 133.265 39.672C132.769 38.728 132.521 37.584 132.521 36.24C132.521 34.704 132.833 33.44 133.457 32.448C134.097 31.44 134.889 30.608 135.833 29.952C136.777 29.28 137.713 28.68 138.641 28.152C139.585 27.624 140.377 27.072 141.017 26.496C141.657 25.92 141.977 25.208 141.977 24.36C141.977 23.192 141.889 22.136 141.713 21.192C141.553 20.232 141.273 19.472 140.873 18.912C140.473 18.352 139.921 18.072 139.217 18.072C138.481 18.072 137.849 18.296 137.321 18.744C136.809 19.176 136.553 19.728 136.553 20.4C136.553 20.832 136.641 21.208 136.817 21.528C137.009 21.832 137.185 22.16 137.345 22.512C137.521 22.848 137.609 23.296 137.609 23.856C137.609 24.64 137.401 25.272 136.985 25.752C136.585 26.216 136.033 26.448 135.329 26.448C134.625 26.448 134.065 26.152 133.649 25.56C133.233 24.952 133.025 24.136 133.025 23.112C133.025 21.88 133.337 20.776 133.961 19.8C134.601 18.808 135.473 18.032 136.577 17.472C137.697 16.912 138.969 16.632 140.393 16.632C141.737 16.632 142.961 16.92 144.065 17.496C145.185 18.056 146.073 18.968 146.729 20.232C147.401 21.496 147.737 23.168 147.737 25.248V38.664C147.737 39.432 147.809 39.968 147.953 40.272C148.113 40.576 148.345 40.728 148.649 40.728C148.905 40.728 149.137 40.656 149.345 40.512C149.569 40.368 149.737 40.24 149.849 40.128L150.545 41.112C150.337 41.4 149.881 41.688 149.177 41.976C148.489 42.264 147.649 42.408 146.657 42.408C145.745 42.408 144.977 42.28 144.353 42.024C143.729 41.768 143.249 41.432 142.913 41.016C142.593 40.584 142.401 40.12 142.337 39.624C142.289 39.928 142.121 40.312 141.833 40.776C141.545 41.224 141.105 41.624 140.513 41.976C139.921 42.328 139.121 42.504 138.113 42.504ZM140.129 40.272C140.497 40.272 140.817 40.112 141.089 39.792C141.377 39.472 141.593 39.08 141.737 38.616C141.897 38.136 141.977 37.664 141.977 37.2V26.88C141.929 27.328 141.713 27.784 141.329 28.248C140.961 28.712 140.545 29.248 140.081 29.856C139.633 30.464 139.233 31.224 138.881 32.136C138.529 33.032 138.353 34.16 138.353 35.52C138.353 37.056 138.497 38.232 138.785 39.048C139.073 39.864 139.521 40.272 140.129 40.272ZM151.328 42V40.752H153.632V7.248H151.328V6H159.392V26.232L165.392 18.12H163.04V16.872H169.352V18.12H166.928L163.904 22.584L169.448 40.752H171.44V42H161.528V40.752H163.376L159.464 27.816L159.392 28.248V40.752H161.048V42H151.328ZM179.846 42.48C178.582 42.48 177.438 42.176 176.414 41.568C175.406 40.944 174.542 40.064 173.822 38.928C173.118 37.776 172.574 36.392 172.19 34.776C171.806 33.16 171.614 31.352 171.614 29.352C171.614 27.08 171.862 25.136 172.358 23.52C172.854 21.904 173.502 20.592 174.302 19.584C175.102 18.56 175.974 17.816 176.918 17.352C177.862 16.872 178.774 16.632 179.654 16.632C180.742 16.632 181.734 16.904 182.63 17.448C183.542 17.976 184.326 18.728 184.982 19.704C185.654 20.68 186.174 21.84 186.542 23.184C186.91 24.528 187.094 26.008 187.094 27.624C187.094 27.944 187.086 28.264 187.07 28.584C187.07 28.888 187.062 29.2 187.046 29.52H177.038V28.272H181.526C181.526 25.824 181.462 23.84 181.334 22.32C181.206 20.784 181.006 19.664 180.734 18.96C180.462 18.24 180.102 17.88 179.654 17.88C179.222 17.88 178.83 18.24 178.478 18.96C178.142 19.664 177.878 20.824 177.686 22.44C177.494 24.056 177.398 26.232 177.398 28.968C177.398 30.92 177.446 32.648 177.542 34.152C177.638 35.656 177.798 36.92 178.022 37.944C178.262 38.968 178.59 39.744 179.006 40.272C179.438 40.8 179.99 41.064 180.662 41.064C181.926 41.064 182.934 40.752 183.686 40.128C184.438 39.504 184.958 38.856 185.246 38.184L186.278 38.928C185.91 39.84 185.166 40.664 184.046 41.4C182.942 42.12 181.542 42.48 179.846 42.48ZM195.521 42.528C194.689 42.528 194.009 42.408 193.481 42.168C192.953 41.944 192.521 41.72 192.185 41.496C191.849 41.256 191.537 41.136 191.249 41.136C191.025 41.136 190.865 41.216 190.769 41.376C190.689 41.52 190.641 41.728 190.625 42H189.521V34.152H190.865C190.945 35 191.113 35.848 191.369 36.696C191.641 37.528 191.977 38.296 192.377 39C192.793 39.688 193.265 40.24 193.793 40.656C194.337 41.072 194.921 41.28 195.545 41.28C196.105 41.28 196.561 41.168 196.913 40.944C197.265 40.704 197.521 40.384 197.681 39.984C197.841 39.584 197.921 39.144 197.921 38.664C197.921 37.976 197.753 37.272 197.417 36.552C197.081 35.816 196.625 35.072 196.049 34.32C195.489 33.568 194.841 32.816 194.105 32.064C192.777 30.64 191.689 29.208 190.841 27.768C189.993 26.312 189.569 24.616 189.569 22.68C189.569 21.24 189.865 20.08 190.457 19.2C191.049 18.304 191.801 17.656 192.713 17.256C193.625 16.84 194.569 16.632 195.545 16.632C196.249 16.632 196.825 16.728 197.273 16.92C197.721 17.096 198.081 17.28 198.353 17.472C198.641 17.648 198.881 17.736 199.073 17.736C199.249 17.736 199.377 17.664 199.457 17.52C199.537 17.376 199.577 17.16 199.577 16.872H200.753V24.504H199.409C199.345 23.736 199.217 22.968 199.025 22.2C198.833 21.416 198.577 20.704 198.257 20.064C197.953 19.408 197.577 18.888 197.129 18.504C196.697 18.104 196.185 17.904 195.593 17.904C194.873 17.904 194.281 18.168 193.817 18.696C193.353 19.208 193.121 19.888 193.121 20.736C193.121 21.728 193.465 22.696 194.153 23.64C194.857 24.584 195.753 25.6 196.841 26.688C197.705 27.568 198.489 28.48 199.193 29.424C199.913 30.352 200.489 31.368 200.921 32.472C201.353 33.56 201.569 34.784 201.569 36.144C201.569 37.6 201.305 38.8 200.777 39.744C200.265 40.688 199.553 41.392 198.641 41.856C197.729 42.304 196.689 42.528 195.521 42.528Z" fill="white"/>
<path d="M6.25 20.8333H35.4167V31.25C35.4167 34.5652 34.0997 37.7446 31.7555 40.0888C29.4113 42.433 26.2319 43.75 22.9167 43.75H18.75C15.4348 43.75 12.2554 42.433 9.91117 40.0888C7.56696 37.7446 6.25 34.5652 6.25 31.25V20.8333Z" fill="#EFB466" stroke="black" stroke-width="2" stroke-linecap="round" stroke-linejoin="round"/>
<path d="M34.8875 34.8458C35.8179 35.273 36.839 35.465 37.861 35.405C38.883 35.3451 39.8747 35.035 40.7487 34.502C41.6228 33.9691 42.3526 33.2295 42.874 32.3485C43.3953 31.4674 43.6922 30.4717 43.7386 29.449C43.785 28.4263 43.5795 27.4078 43.14 26.4832C42.7006 25.5585 42.0408 24.7559 41.2185 24.146C40.3963 23.5361 39.4368 23.1375 38.4244 22.9852C37.412 22.833 36.3778 22.9318 35.4125 23.2729" stroke="black" stroke-width="2" stroke-linecap="round" stroke-linejoin="round"/>
<path d="M6.25 29.1667C7.97917 30.5042 10.5771 31.2854 13.5417 31.25C16.5063 31.2854 19.1042 30.5042 20.8333 29.1667C22.5625 27.8292 25.1604 27.0479 28.125 27.0833C31.0896 27.0479 33.6875 27.8292 35.4167 29.1667M16.6667 6.25C16.0073 6.72327 15.4731 7.34994 15.1101 8.07588C14.7471 8.80183 14.5663 9.60522 14.5833 10.4167C14.5663 11.2281 14.7471 12.0315 15.1101 12.7574C15.4731 13.4834 16.0073 14.1101 16.6667 14.5833M25 6.25C24.3406 6.72327 23.8064 7.34994 23.4434 8.07588C23.0805 8.80183 22.8997 9.60522 22.9167 10.4167C22.8997 11.2281 23.0805 12.0315 23.4434 12.7574C23.8064 13.4834 24.3406 14.1101 25 14.5833" stroke="black" stroke-width="2" stroke-linecap="round" stroke-linejoin="round"/>
</svg>
