<svg width="145" height="93" viewBox="0 0 145 93" fill="none" xmlns="http://www.w3.org/2000/svg">
<path d="M9.60163 81.504C8.46563 81.504 7.40163 81.208 6.40963 80.616C5.43363 80.008 4.56963 79.128 3.81763 77.976C3.06563 76.824 2.47363 75.44 2.04163 73.824C1.62563 72.192 1.41763 70.352 1.41763 68.304C1.41763 66 1.68963 64.04 2.23363 62.424C2.79363 60.808 3.50563 59.504 4.36963 58.512C5.23363 57.52 6.15363 56.792 7.12963 56.328C8.10563 55.864 9.01763 55.632 9.86563 55.632C11.0176 55.632 12.0176 55.936 12.8656 56.544C13.7296 57.136 14.3936 57.928 14.8576 58.92C15.3376 59.912 15.5776 61 15.5776 62.184C15.5776 63.272 15.3696 64.088 14.9536 64.632C14.5376 65.176 13.9936 65.448 13.3216 65.448C12.6336 65.448 12.0736 65.216 11.6416 64.752C11.2256 64.272 11.0176 63.624 11.0176 62.808C11.0176 62.248 11.1216 61.768 11.3296 61.368C11.5536 60.968 11.7776 60.592 12.0016 60.24C12.2256 59.888 12.3376 59.504 12.3376 59.088C12.3376 58.352 12.1296 57.808 11.7136 57.456C11.2976 57.088 10.8016 56.904 10.2256 56.904C9.63363 56.904 9.14563 57.272 8.76163 58.008C8.39363 58.744 8.10563 59.688 7.89763 60.84C7.70563 61.992 7.56963 63.216 7.48963 64.512C7.42563 65.808 7.39363 67.016 7.39363 68.136C7.39363 69.432 7.43363 70.776 7.51363 72.168C7.60963 73.56 7.76963 74.864 7.99363 76.08C8.21763 77.28 8.53763 78.256 8.95363 79.008C9.38563 79.744 9.94563 80.112 10.6336 80.112C11.5776 80.112 12.3296 79.808 12.8896 79.2C13.4496 78.576 13.8256 77.928 14.0176 77.256L15.0016 78.024C14.6656 78.936 14.0496 79.744 13.1536 80.448C12.2736 81.152 11.0896 81.504 9.60163 81.504ZM24.9793 81.528C23.8593 81.528 22.8673 81.328 22.0033 80.928C21.1393 80.512 20.4593 79.76 19.9633 78.672C19.4673 77.568 19.2193 75.992 19.2193 73.944V57.12H17.0833V55.896H24.9793V73.32C24.9793 74.968 25.0273 76.248 25.1233 77.16C25.2193 78.056 25.3793 78.688 25.6033 79.056C25.8433 79.408 26.1633 79.584 26.5633 79.584C26.9953 79.584 27.3873 79.352 27.7393 78.888C28.0913 78.408 28.3633 77.768 28.5553 76.968C28.7473 76.168 28.8433 75.288 28.8433 74.328V57.12H26.8993V55.896H34.6033V79.752H36.5473V81H29.2993L29.1073 78.432C29.0113 78.864 28.7953 79.32 28.4593 79.8C28.1393 80.28 27.6913 80.688 27.1153 81.024C26.5393 81.36 25.8273 81.528 24.9793 81.528ZM37.4945 93V91.752H39.8225V57.12H37.4945V55.872H45.5825V58.488C45.6625 58.216 45.8385 57.856 46.1105 57.408C46.3985 56.944 46.7985 56.536 47.3105 56.184C47.8385 55.816 48.5025 55.632 49.3025 55.632C50.3905 55.632 51.3905 56.072 52.3025 56.952C53.2305 57.832 53.9745 59.224 54.5345 61.128C55.1105 63.032 55.3985 65.512 55.3985 68.568C55.3985 71.848 55.0865 74.432 54.4625 76.32C53.8545 78.192 53.0465 79.52 52.0385 80.304C51.0465 81.088 49.9745 81.48 48.8225 81.48C48.1345 81.48 47.5665 81.328 47.1185 81.024C46.6865 80.736 46.3505 80.4 46.1105 80.016C45.8865 79.616 45.7425 79.296 45.6785 79.056V91.752H48.0545V93H37.4945ZM47.6705 79.632C47.9905 79.632 48.2705 79.368 48.5105 78.84C48.7505 78.296 48.9505 77.536 49.1105 76.56C49.2865 75.584 49.4145 74.424 49.4945 73.08C49.5745 71.736 49.6145 70.256 49.6145 68.64C49.6145 67.056 49.5745 65.6 49.4945 64.272C49.4145 62.928 49.2945 61.768 49.1345 60.792C48.9745 59.816 48.7745 59.064 48.5345 58.536C48.2945 57.992 48.0145 57.72 47.6945 57.72C47.3105 57.72 46.9825 57.936 46.7105 58.368C46.4545 58.8 46.2385 59.368 46.0625 60.072C45.9025 60.76 45.7745 61.496 45.6785 62.28V74.664C45.6945 75.56 45.7825 76.384 45.9425 77.136C46.1185 77.888 46.3505 78.496 46.6385 78.96C46.9265 79.408 47.2705 79.632 47.6705 79.632ZM66.3673 81.504C65.2313 81.504 64.1673 81.208 63.1753 80.616C62.1993 80.008 61.3353 79.128 60.5833 77.976C59.8313 76.824 59.2393 75.44 58.8073 73.824C58.3913 72.192 58.1833 70.352 58.1833 68.304C58.1833 66 58.4553 64.04 58.9993 62.424C59.5593 60.808 60.2713 59.504 61.1353 58.512C61.9993 57.52 62.9193 56.792 63.8953 56.328C64.8713 55.864 65.7833 55.632 66.6313 55.632C67.7833 55.632 68.7833 55.936 69.6313 56.544C70.4953 57.136 71.1593 57.928 71.6233 58.92C72.1033 59.912 72.3433 61 72.3433 62.184C72.3433 63.272 72.1353 64.088 71.7193 64.632C71.3033 65.176 70.7593 65.448 70.0873 65.448C69.3993 65.448 68.8393 65.216 68.4073 64.752C67.9913 64.272 67.7833 63.624 67.7833 62.808C67.7833 62.248 67.8873 61.768 68.0953 61.368C68.3193 60.968 68.5433 60.592 68.7673 60.24C68.9913 59.888 69.1033 59.504 69.1033 59.088C69.1033 58.352 68.8953 57.808 68.4793 57.456C68.0633 57.088 67.5673 56.904 66.9913 56.904C66.3993 56.904 65.9113 57.272 65.5273 58.008C65.1593 58.744 64.8713 59.688 64.6633 60.84C64.4713 61.992 64.3353 63.216 64.2553 64.512C64.1913 65.808 64.1593 67.016 64.1593 68.136C64.1593 69.432 64.1993 70.776 64.2793 72.168C64.3753 73.56 64.5353 74.864 64.7593 76.08C64.9833 77.28 65.3033 78.256 65.7193 79.008C66.1513 79.744 66.7113 80.112 67.3993 80.112C68.3433 80.112 69.0953 79.808 69.6553 79.2C70.2153 78.576 70.5913 77.928 70.7833 77.256L71.7673 78.024C71.4313 78.936 70.8153 79.744 69.9193 80.448C69.0393 81.152 67.8553 81.504 66.3673 81.504ZM80.1129 81.504C79.0729 81.504 78.1289 81.264 77.2809 80.784C76.4329 80.304 75.7609 79.6 75.2649 78.672C74.7689 77.728 74.5209 76.584 74.5209 75.24C74.5209 73.704 74.8329 72.44 75.4569 71.448C76.0969 70.44 76.8889 69.608 77.8329 68.952C78.7769 68.28 79.7129 67.68 80.6409 67.152C81.5849 66.624 82.3769 66.072 83.0169 65.496C83.6569 64.92 83.9769 64.208 83.9769 63.36C83.9769 62.192 83.8889 61.136 83.7129 60.192C83.5529 59.232 83.2729 58.472 82.8729 57.912C82.4729 57.352 81.9209 57.072 81.2169 57.072C80.4809 57.072 79.8489 57.296 79.3209 57.744C78.8089 58.176 78.5529 58.728 78.5529 59.4C78.5529 59.832 78.6409 60.208 78.8169 60.528C79.0089 60.832 79.1849 61.16 79.3449 61.512C79.5209 61.848 79.6089 62.296 79.6089 62.856C79.6089 63.64 79.4009 64.272 78.9849 64.752C78.5849 65.216 78.0329 65.448 77.3289 65.448C76.6249 65.448 76.0649 65.152 75.6489 64.56C75.2329 63.952 75.0249 63.136 75.0249 62.112C75.0249 60.88 75.3369 59.776 75.9609 58.8C76.6009 57.808 77.4729 57.032 78.5769 56.472C79.6969 55.912 80.9689 55.632 82.3929 55.632C83.7369 55.632 84.9609 55.92 86.0649 56.496C87.1849 57.056 88.0729 57.968 88.7289 59.232C89.4009 60.496 89.7369 62.168 89.7369 64.248V77.664C89.7369 78.432 89.8089 78.968 89.9529 79.272C90.1129 79.576 90.3449 79.728 90.6489 79.728C90.9049 79.728 91.1369 79.656 91.3449 79.512C91.5689 79.368 91.7369 79.24 91.8489 79.128L92.5449 80.112C92.3369 80.4 91.8809 80.688 91.1769 80.976C90.4889 81.264 89.6489 81.408 88.6569 81.408C87.7449 81.408 86.9769 81.28 86.3529 81.024C85.7289 80.768 85.2489 80.432 84.9129 80.016C84.5929 79.584 84.4009 79.12 84.3369 78.624C84.2889 78.928 84.1209 79.312 83.8329 79.776C83.5449 80.224 83.1049 80.624 82.5129 80.976C81.9209 81.328 81.1209 81.504 80.1129 81.504ZM82.1289 79.272C82.4969 79.272 82.8169 79.112 83.0889 78.792C83.3769 78.472 83.5929 78.08 83.7369 77.616C83.8969 77.136 83.9769 76.664 83.9769 76.2V65.88C83.9289 66.328 83.7129 66.784 83.3289 67.248C82.9609 67.712 82.5449 68.248 82.0809 68.856C81.6329 69.464 81.2329 70.224 80.8809 71.136C80.5289 72.032 80.3529 73.16 80.3529 74.52C80.3529 76.056 80.4969 77.232 80.7849 78.048C81.0729 78.864 81.5209 79.272 82.1289 79.272ZM93.3283 81V79.752H95.6323V46.248H93.3283V45H101.392V65.232L107.392 57.12H105.04V55.872H111.352V57.12H108.928L105.904 61.584L111.448 79.752H113.44V81H103.528V79.752H105.376L101.464 66.816L101.392 67.248V79.752H103.048V81H93.3283ZM121.846 81.48C120.582 81.48 119.438 81.176 118.414 80.568C117.406 79.944 116.542 79.064 115.822 77.928C115.118 76.776 114.574 75.392 114.19 73.776C113.806 72.16 113.614 70.352 113.614 68.352C113.614 66.08 113.862 64.136 114.358 62.52C114.854 60.904 115.502 59.592 116.302 58.584C117.102 57.56 117.974 56.816 118.918 56.352C119.862 55.872 120.774 55.632 121.654 55.632C122.742 55.632 123.734 55.904 124.63 56.448C125.542 56.976 126.326 57.728 126.982 58.704C127.654 59.68 128.174 60.84 128.542 62.184C128.91 63.528 129.094 65.008 129.094 66.624C129.094 66.944 129.086 67.264 129.07 67.584C129.07 67.888 129.062 68.2 129.046 68.52H119.038V67.272H123.526C123.526 64.824 123.462 62.84 123.334 61.32C123.206 59.784 123.006 58.664 122.734 57.96C122.462 57.24 122.102 56.88 121.654 56.88C121.222 56.88 120.83 57.24 120.478 57.96C120.142 58.664 119.878 59.824 119.686 61.44C119.494 63.056 119.398 65.232 119.398 67.968C119.398 69.92 119.446 71.648 119.542 73.152C119.638 74.656 119.798 75.92 120.022 76.944C120.262 77.968 120.59 78.744 121.006 79.272C121.438 79.8 121.99 80.064 122.662 80.064C123.926 80.064 124.934 79.752 125.686 79.128C126.438 78.504 126.958 77.856 127.246 77.184L128.278 77.928C127.91 78.84 127.166 79.664 126.046 80.4C124.942 81.12 123.542 81.48 121.846 81.48ZM137.521 81.528C136.689 81.528 136.009 81.408 135.481 81.168C134.953 80.944 134.521 80.72 134.185 80.496C133.849 80.256 133.537 80.136 133.249 80.136C133.025 80.136 132.865 80.216 132.769 80.376C132.689 80.52 132.641 80.728 132.625 81H131.521V73.152H132.865C132.945 74 133.113 74.848 133.369 75.696C133.641 76.528 133.977 77.296 134.377 78C134.793 78.688 135.265 79.24 135.793 79.656C136.337 80.072 136.921 80.28 137.545 80.28C138.105 80.28 138.561 80.168 138.913 79.944C139.265 79.704 139.521 79.384 139.681 78.984C139.841 78.584 139.921 78.144 139.921 77.664C139.921 76.976 139.753 76.272 139.417 75.552C139.081 74.816 138.625 74.072 138.049 73.32C137.489 72.568 136.841 71.816 136.105 71.064C134.777 69.64 133.689 68.208 132.841 66.768C131.993 65.312 131.569 63.616 131.569 61.68C131.569 60.24 131.865 59.08 132.457 58.2C133.049 57.304 133.801 56.656 134.713 56.256C135.625 55.84 136.569 55.632 137.545 55.632C138.249 55.632 138.825 55.728 139.273 55.92C139.721 56.096 140.081 56.28 140.353 56.472C140.641 56.648 140.881 56.736 141.073 56.736C141.249 56.736 141.377 56.664 141.457 56.52C141.537 56.376 141.577 56.16 141.577 55.872H142.753V63.504H141.409C141.345 62.736 141.217 61.968 141.025 61.2C140.833 60.416 140.577 59.704 140.257 59.064C139.953 58.408 139.577 57.888 139.129 57.504C138.697 57.104 138.185 56.904 137.593 56.904C136.873 56.904 136.281 57.168 135.817 57.696C135.353 58.208 135.121 58.888 135.121 59.736C135.121 60.728 135.465 61.696 136.153 62.64C136.857 63.584 137.753 64.6 138.841 65.688C139.705 66.568 140.489 67.48 141.193 68.424C141.913 69.352 142.489 70.368 142.921 71.472C143.353 72.56 143.569 73.784 143.569 75.144C143.569 76.6 143.305 77.8 142.777 78.744C142.265 79.688 141.553 80.392 140.641 80.856C139.729 81.304 138.689 81.528 137.521 81.528Z" fill="white"/>
<path d="M53.25 20.8333H82.4167V31.25C82.4167 34.5652 81.0997 37.7446 78.7555 40.0888C76.4113 42.433 73.2319 43.75 69.9167 43.75H65.75C62.4348 43.75 59.2554 42.433 56.9112 40.0888C54.567 37.7446 53.25 34.5652 53.25 31.25V20.8333Z" fill="#EFB466" stroke="black" stroke-width="2" stroke-linecap="round" stroke-linejoin="round"/>
<path d="M81.8875 34.8458C82.8179 35.273 83.839 35.465 84.861 35.405C85.883 35.3451 86.8747 35.035 87.7487 34.502C88.6228 33.9691 89.3526 33.2295 89.874 32.3485C90.3953 31.4674 90.6922 30.4717 90.7386 29.449C90.785 28.4263 90.5795 27.4078 90.14 26.4832C89.7006 25.5585 89.0408 24.7559 88.2185 24.146C87.3963 23.5361 86.4368 23.1375 85.4244 22.9852C84.412 22.833 83.3778 22.9318 82.4125 23.2729" stroke="black" stroke-width="2" stroke-linecap="round" stroke-linejoin="round"/>
<path d="M53.25 29.1667C54.9792 30.5042 57.5771 31.2854 60.5417 31.25C63.5063 31.2854 66.1042 30.5042 67.8333 29.1667C69.5625 27.8292 72.1604 27.0479 75.125 27.0833C78.0896 27.0479 80.6875 27.8292 82.4167 29.1667M63.6667 6.25C63.0073 6.72327 62.4731 7.34994 62.1101 8.07588C61.7471 8.80183 61.5663 9.60522 61.5833 10.4167C61.5663 11.2281 61.7471 12.0315 62.1101 12.7574C62.4731 13.4834 63.0073 14.1101 63.6667 14.5833M72 6.25C71.3406 6.72327 70.8064 7.34994 70.4434 8.07588C70.0805 8.80183 69.8997 9.60522 69.9167 10.4167C69.8997 11.2281 70.0805 12.0315 70.4434 12.7574C70.8064 13.4834 71.3406 14.1101 72 14.5833" stroke="black" stroke-width="2" stroke-linecap="round" stroke-linejoin="round"/>
</svg>
